<?xml version="1.0" encoding="utf-8"?>
<!-- Generator: Adobe Illustrator 24.3.0, SVG Export Plug-In . SVG Version: 6.00 Build 0)  -->
<svg version="1.1" id="Layer_1" xmlns="http://www.w3.org/2000/svg" xmlns:xlink="http://www.w3.org/1999/xlink" x="0px" y="0px"
	 viewBox="0 0 200 200" enable-background="new 0 0 200 200" xml:space="preserve">
<path fill="#282828" d="M100.232,149.198c-2.8,0-5.4-1.8-7.2-5.2c-22.2-41-22.4-41.4-22.4-41.6c-3.2-5.1-4.9-11.3-4.9-17.6
	c0-19.1,15.5-34.6,34.6-34.6s34.6,15.5,34.6,34.6c0,6.5-1.8,12.8-5.2,18.2c0,0-1.2,2.4-22.2,41
	C105.632,147.398,103.132,149.198,100.232,149.198z M100.332,54.198c-16.9,0-30.6,13.7-30.6,30.6c0,5.6,1.5,11.1,4.5,15.9
	c0.6,1.3,16.4,30.4,22.4,41.5c2.1,3.9,5.2,3.9,7.4,0c7.5-13.8,21.7-40.1,22.2-41c3.1-5,4.7-10.6,4.7-16.3
	C130.832,67.898,117.132,54.198,100.332,54.198z"/>
<path fill="#282828" d="M100.332,105.598c-10.6,0-19.1-8.6-19.1-19.1s8.5-19.2,19.1-19.2c10.6,0,19.1,8.6,19.1,19.1
	S110.832,105.598,100.332,105.598z M100.332,71.298c-8.3,0-15.1,6.8-15.1,15.1c0,8.3,6.8,15.1,15.1,15.1c8.3,0,15.1-6.8,15.1-15.1
	C115.432,78.098,108.632,71.298,100.332,71.298z"/>
</svg>
